HIERARCHY
ROOT Hips
{
  OFFSET 17.9996 39.7786 -6.99524
  CHANNELS 6 Xposition Yposition Zposition Zrotation Xrotation Yrotation
  JOINT LeftHip
  {
    OFFSET 3.43 0 -1.77636e-015
    CHANNELS 6 Xposition Yposition Zposition Zrotation Xrotation Yrotation
    JOINT LeftKnee
    {
      OFFSET 4.9738e-014 -18.47 1.42109e-014
      CHANNELS 6 Xposition Yposition Zposition Zrotation Xrotation Yrotation
      JOINT LeftAnkle
      {
        OFFSET -1.06581e-014 -17.95 -2.22045e-015
        CHANNELS 6 Xposition Yposition Zposition Zrotation Xrotation Yrotation
        End Site
        {
          OFFSET 0 -3.12 0
        }
      }
    }
  }
  JOINT RightHip
  {
    OFFSET -3.43 -1.84741e-013 3.01981e-014
    CHANNELS 6 Xposition Yposition Zposition Zrotation Xrotation Yrotation
    JOINT RightKnee
    {
      OFFSET 2.4869e-014 -18.47 -8.43769e-015
      CHANNELS 6 Xposition Yposition Zposition Zrotation Xrotation Yrotation
      JOINT RightAnkle
      {
        OFFSET 1.06581e-014 -17.95 1.42109e-014
        CHANNELS 6 Xposition Yposition Zposition Zrotation Xrotation Yrotation
        End Site
        {
          OFFSET 0 -3.12 0
        }
      }
    }
  }
  JOINT Chest
  {
    OFFSET 0 4.57 8.88178e-015
    CHANNELS 6 Xposition Yposition Zposition Zrotation Xrotation Yrotation
    JOINT Chest2
    {
      OFFSET 3.55271e-014 6.57 7.10543e-015
      CHANNELS 6 Xposition Yposition Zposition Zrotation Xrotation Yrotation
      JOINT LeftCollar
      {
        OFFSET 1.06 4.19 1.76
        CHANNELS 6 Xposition Yposition Zposition Zrotation Xrotation Yrotation
        JOINT LeftShoulder
        {
          OFFSET 5.81 -1.13687e-013 -4.88498e-014
          CHANNELS 6 Xposition Yposition Zposition Zrotation Xrotation Yrotation
          JOINT LeftElbow
          {
            OFFSET 7.10543e-015 -12.08 -8.17124e-014
            CHANNELS 6 Xposition Yposition Zposition Zrotation Xrotation Yrotation
            JOINT LeftWrist
            {
              OFFSET 1.42109e-014 -9.82 -2.66454e-015
              CHANNELS 6 Xposition Yposition Zposition Zrotation Xrotation Yrotation
              End Site
              {
                OFFSET 0 -7.37 0
              }
            }
          }
        }
      }
      JOINT RightCollar
      {
        OFFSET -1.06 4.19 1.76
        CHANNELS 6 Xposition Yposition Zposition Zrotation Xrotation Yrotation
        JOINT RightShoulder
        {
          OFFSET -6.06 -2.13163e-014 -1.90958e-014
          CHANNELS 6 Xposition Yposition Zposition Zrotation Xrotation Yrotation
          JOINT RightElbow
          {
            OFFSET -7.10543e-014 -11.08 7.10543e-014
            CHANNELS 6 Xposition Yposition Zposition Zrotation Xrotation Yrotation
            JOINT RightWrist
            {
              OFFSET 0 -9.82 1.77636e-015
              CHANNELS 6 Xposition Yposition Zposition Zrotation Xrotation Yrotation
              End Site
              {
                OFFSET 0 -7.14001 0
              }
            }
          }
        }
      }
      JOINT Neck
      {
        OFFSET 3.55271e-015 4.05 1.15463e-014
        CHANNELS 6 Xposition Yposition Zposition Zrotation Xrotation Yrotation
        JOINT Head
        {
          OFFSET 0 5.19 1.77636e-015
          CHANNELS 6 Xposition Yposition Zposition Zrotation Xrotation Yrotation
          End Site
          {
            OFFSET 0 4.14001 0
          }
        }
      }
    }
  }
}
MOTION
Frames:	10
Frame Time:	0.0333333
18.572 39.3285 -4.19359 -0.707145 -0.690458 0.106482 3.43 3.64771e-014 -8.62348e-016 12.2825 6.70189 6.97514 -3.61068e-015 -18.47 1.42109e-014 1.1538e-013 3.07657e-012 0.638547 -1.06581e-014 -17.95 -2.22045e-015 -12.299 -4.29518 -0.462982 -3.43 3.59069e-014 7.07955e-017 -12.1322 -1.6927 -6.06157 2.4869e-014 -18.47 -8.43769e-015 2.73074e-006 19.7714 0.894539 1.06581e-014 -17.95 -1.50919e-018 12.631 -7.72465 0.856198 0 4.57 2.7488e-014 0.192472 -6.07819 -0.65803 3.55271e-014 6.57 7.10543e-015 0.222625 -5.54678 -0.620465 1.06 4.19 1.76 9.58464 0.523912 2.39071 5.81 -3.38012e-016 -3.52366e-015 78.3985 2.07219 14.1326 7.13524e-015 -12.08 -3.18726e-014 -4.25286 -2.10314 -17.2793 1.42109e-014 -9.82 -2.66454e-015 0.70388 0.951665 -0.0059605 -1.06 4.19 1.76 -10.2492 0.512964 -2.44062 -6.06 1.0555e-013 2.03921e-014 -82.1347 1.68037 -27.0056 5.68532e-014 -11.08 7.09384e-015 1.89809 -2.11443 25.9256 0 -9.82 1.77636e-015 -1.27675 2.34037 0.0260376 3.55271e-015 4.05 1.15463e-014 -0.0789672 18.0965 -1.61545 0 5.19 1.77636e-015 3.46423 3.99244 -2.48076 
18.5194 39.3306 -4.32597 -0.633221 -0.796443 9.2108e-005 3.43 2.93935e-013 -5.27262e-016 12.2898 6.65352 6.9776 -4.23565e-015 -18.47 1.42109e-014 9.88995e-014 2.94256e-012 0.64653 -1.06581e-014 -17.95 -2.22045e-015 -12.3578 -4.1274 -0.447035 -3.43 2.99224e-013 9.95366e-016 -12.1426 -2.03856 -6.06953 2.4869e-014 -18.47 -8.43769e-015 1.27879e-005 20.1994 0.902352 1.06581e-014 -17.95 -5.66478e-017 12.5116 -7.7952 0.855815 0 4.57 2.70813e-014 0.207528 -5.82762 -0.541152 3.55271e-014 6.57 7.10543e-015 0.227051 -5.31911 -0.515664 1.06 4.19 1.76 9.47844 0.534473 2.49983 5.81 -4.8892e-015 -3.49663e-015 78.5433 1.7631 14.2744 7.02924e-015 -12.08 -3.01993e-014 -4.25691 -2.1055 -17.2826 1.42109e-014 -9.82 -2.66454e-015 0.459094 0.530996 -0.00208359 -1.06 4.19 1.76 -10.4181 0.492961 -2.24809 -6.06 9.39267e-014 2.00583e-014 -82.1372 1.7381 -26.9469 5.7688e-014 -11.08 7.08554e-015 1.94086 -2.0503 25.5616 0 -9.82 1.77636e-015 -1.50581 2.04009 0.0267547 3.55271e-015 4.05 1.15463e-014 -0.0269952 17.9225 -1.53705 0 5.19 1.77636e-015 3.37207 3.69996 -2.36488 
18.4832 39.3231 -4.46374 -0.656073 -0.89218 0.125042 3.43 2.55783e-013 2.0947e-017 12.3641 6.47952 6.99534 -5.1121e-015 -18.47 1.42109e-014 6.98379e-014 2.73893e-012 0.648459 -1.06581e-014 -17.95 -2.22045e-015 -12.3679 -3.85397 -0.417736 -3.43 2.61516e-013 2.5143e-015 -12.0728 -2.35817 -6.04851 2.4869e-014 -18.47 -8.43769e-015 -1.30777e-005 20.6838 0.923124 1.06581e-014 -17.95 -1.87608e-016 12.4184 -7.89019 0.859786 0 4.57 2.66254e-014 0.24649 -5.60955 -0.475194 3.55271e-014 6.57 7.10543e-015 0.256945 -5.12034 -0.461567 1.06 4.19 1.76 9.8711 0.505172 2.2157 5.81 -1.24461e-014 -3.85189e-015 78.2941 1.58529 14.3953 6.29639e-015 -12.08 -2.70719e-014 -4.2144 -2.1132 -17.5038 1.42109e-014 -9.82 -2.66454e-015 0.459657 0.494779 -0.00190802 -1.06 4.19 1.76 -10.1915 0.508784 -2.38922 -6.06 7.72114e-014 1.96641e-014 -82.4183 1.54613 -27.1098 5.98519e-014 -11.08 7.23313e-015 1.92345 -2.06712 25.5281 0 -9.82 1.77636e-015 -1.89719 1.76324 0.0292514 3.55271e-015 4.05 1.15463e-014 0.217206 17.7239 -1.59469 0 5.19 1.77636e-015 3.17462 3.64482 -2.26454 
18.4483 39.3212 -4.61037 -0.861827 -0.932499 0.156602 3.43 1.10891e-013 7.81068e-016 12.6312 6.24432 7.07174 -6.23731e-015 -18.47 1.42109e-014 3.11661e-014 2.48363e-012 0.651291 -1.06581e-014 -17.95 -2.22045e-015 -12.3924 -3.5611 -0.386744 -3.43 -1.50067e-014 4.62316e-015 -11.8183 -2.60723 -5.97735 2.4869e-014 -18.47 -8.43769e-015 1.53541e-005 20.8373 0.916265 1.06581e-014 -17.95 -3.94133e-016 12.3427 -7.79591 0.844248 0 4.57 2.61208e-014 0.480278 -5.43578 -0.421753 3.55271e-014 6.57 7.10543e-015 0.465444 -4.96261 -0.400145 1.06 4.19 1.76 9.86025 0.499599 2.15328 5.81 -2.28792e-014 -4.58682e-015 78.3401 1.24723 14.6913 4.94537e-015 -12.08 -2.2516e-014 -4.13765 -2.11677 -17.7169 1.42109e-014 -9.82 -2.66454e-015 0.778527 -0.0240496 0.000114082 -1.06 4.19 1.76 -10.1986 0.507816 -2.37968 -6.06 5.58584e-014 1.92104e-014 -82.647 1.34797 -27.0792 6.33213e-014 -11.08 7.53426e-015 1.945 -2.0748 26.1307 0 -9.82 1.77636e-015 -1.88548 1.93151 0.03169 3.55271e-015 4.05 1.15463e-014 0.222804 17.7642 -1.52023 0 5.19 1.77636e-015 2.76881 3.1218 -2.08583 
18.4134 39.3201 -4.74728 -0.860378 -0.922428 0.400982 3.43 7.13817e-015 1.75189e-015 12.6789 5.91953 7.08434 -7.60858e-015 -18.47 1.42109e-014 -1.36283e-014 2.1946e-012 0.651338 -1.06581e-014 -17.95 -2.22045e-015 -12.393 -3.25067 -0.353033 -3.43 2.35676e-014 7.31748e-015 -11.7879 -2.93381 -5.97127 2.4869e-014 -18.47 -8.43769e-015 5.01196e-006 21.2152 0.93538 1.06581e-014 -17.95 -6.75964e-016 12.2782 -7.82199 0.842626 0 4.57 2.55679e-014 0.549084 -5.30832 -0.541681 3.55271e-014 6.57 7.10543e-015 0.537859 -4.84627 -0.495416 1.06 4.19 1.76 9.82584 0.496521 2.11448 5.81 -3.6059e-014 -5.69881e-015 78.4928 1.03105 14.6301 2.98486e-015 -12.08 -1.65573e-014 -4.21623 -2.12297 -17.7023 1.42109e-014 -9.82 -2.66454e-015 1.24885 -0.0658745 0.000649745 -1.06 4.19 1.76 -10.295 0.517872 -2.49691 -6.06 3.03219e-014 1.86979e-014 -82.7581 0.957218 -26.9922 6.80728e-014 -11.08 7.98655e-015 2.04882 -2.05226 26.9382 0 -9.82 1.77636e-015 -2.16428 1.50887 0.0286532 3.55271e-015 4.05 1.15463e-014 0.0360455 17.5254 -1.38235 0 5.19 1.77636e-015 2.56647 3.58035 -1.98725 
18.3993 39.3305 -4.89516 -0.812004 -1.06664 0.642303 3.43 2.05728e-014 2.9322e-015 12.6522 5.69418 7.07749 -9.22317e-015 -18.47 1.42109e-014 -6.12293e-014 1.88978e-012 0.647706 -1.06581e-014 -17.95 -2.22045e-015 -12.3436 -2.89299 -0.312914 -3.43 2.91356e-013 1.05928e-014 -11.781 -2.80698 -5.97388 2.4869e-014 -18.47 -8.43769e-015 -1.02856e-005 20.9551 0.896429 1.06581e-014 -17.95 -1.03285e-015 12.2276 -7.73834 0.83012 0 4.57 2.49672e-014 0.558535 -5.10004 -0.706371 3.55271e-014 6.57 7.10543e-015 0.558695 -4.65559 -0.637811 1.06 4.19 1.76 9.7915 0.492067 2.06019 5.81 -5.18561e-014 -7.18525e-015 78.8282 0.816926 14.7913 4.23541e-016 -12.08 -9.22167e-015 -4.20037 -2.12425 -17.8401 1.42109e-014 -9.82 -2.66454e-015 0.583192 -0.231039 0.00121792 -1.06 4.19 1.76 -10.1729 0.514389 -2.44732 -6.06 1.05596e-015 1.81273e-014 -82.9257 0.581457 -27.2786 7.40828e-014 -11.08 8.58764e-015 1.97488 -2.07989 27.85 0 -9.82 1.77636e-015 -1.69918 1.17337 0.0173348 3.55271e-015 4.05 1.15463e-014 0.00257453 17.5938 -1.22336 0 5.19 1.77636e-015 1.88213 3.58946 -1.63194 
18.4035 39.3455 -5.00788 -0.821852 -1.01158 0.687436 3.43 3.02643e-013 4.32078e-015 12.6361 5.45865 7.07845 -1.10784e-014 -18.47 1.42109e-014 -1.08527e-013 1.58711e-012 0.646164 -1.06581e-014 -17.95 -2.22045e-015 -12.1565 -2.72492 -0.290218 -3.43 2.39404e-013 1.44447e-014 -11.7695 -2.98577 -5.98005 2.4869e-014 -18.47 -8.43769e-015 3.90031e-006 20.904 0.878353 1.06581e-014 -17.95 -1.46452e-015 12.2128 -7.54005 0.807798 0 4.57 2.43189e-014 0.654604 -5.12625 -0.693355 3.55271e-014 6.57 7.10543e-015 0.645604 -4.68027 -0.614587 1.06 4.19 1.76 9.736 0.496633 2.10305 5.81 -7.01409e-014 -9.04351e-015 79.0614 0.411041 14.8584 -2.7299e-015 -12.08 -5.34698e-016 -4.25759 -2.12548 -17.9242 1.42109e-014 -9.82 -2.66454e-015 0.582811 -0.475673 0.00242485 -1.06 4.19 1.76 -10.333 0.515984 -2.48058 -6.06 -3.14854e-014 1.74995e-014 -82.7361 0.289201 -27.3712 8.13278e-014 -11.08 9.33517e-015 1.95348 -2.08519 29.0178 0 -9.82 1.77636e-015 -1.66468 0.934474 0.0135659 3.55271e-015 4.05 1.15463e-014 -0.146989 17.6491 -0.995348 0 5.19 1.77636e-015 1.65367 4.03043 -1.43221 
18.4273 39.3529 -5.1285 -0.759308 -1.01072 0.69457 3.43 4.13216e-013 5.91643e-015 12.5192 5.28453 7.04809 -1.31715e-014 -18.47 1.42109e-014 -1.52026e-013 1.30454e-012 0.640827 -1.06581e-014 -17.95 -2.22045e-015 -11.9548 -2.57281 -0.269432 -3.43 6.04589e-014 1.88687e-014 -11.8553 -3.00092 -6.01845 2.4869e-014 -18.47 -8.43769e-015 5.3354e-005 20.5692 0.82303 1.06581e-014 -17.95 -1.97073e-015 12.2355 -7.37365 0.791409 0 4.57 2.36236e-014 0.70113 -5.05451 -0.690632 3.55271e-014 6.57 7.10543e-015 0.687969 -4.61541 -0.605292 1.06 4.19 1.76 9.86329 0.490162 2.04952 5.81 -9.0784e-014 -1.1271e-014 79.1386 0.160503 15.1236 -6.46679e-015 -12.08 9.47787e-015 -4.16552 -2.1296 -18.0988 1.42109e-014 -9.82 -2.66454e-015 0.572066 -0.436243 0.00216458 -1.06 4.19 1.76 -10.2584 0.499935 -2.30276 -6.06 -6.68481e-014 1.68153e-014 -82.9035 0.28689 -27.0105 8.97844e-014 -11.08 1.02268e-014 2.11757 -2.0601 29.0926 0 -9.82 1.77636e-015 -1.695 0.494147 0.00751443 3.55271e-015 4.05 1.15463e-014 -0.226135 17.6993 -0.787179 0 5.19 1.77636e-015 1.41345 4.09668 -1.21403 
18.4584 39.3625 -5.24329 -0.811462 -1.04942 0.742366 3.43 2.36967e-013 7.71794e-015 12.5254 5.1341 7.05437 -1.54998e-014 -18.47 1.42109e-014 -1.885e-013 1.06001e-012 0.634858 -1.06581e-014 -17.95 -2.22045e-015 -11.777 -2.3975 -0.247309 -3.43 -1.43559e-013 2.38604e-014 -11.7683 -2.72856 -6.00512 2.4869e-014 -18.47 -8.43769e-015 1.04434e-005 19.7704 0.735491 1.06581e-014 -17.95 -2.55121e-015 12.23 -7.15632 0.767667 0 4.57 2.28816e-014 0.849697 -4.92491 -0.622325 3.55271e-014 6.57 7.10543e-015 0.818081 -4.49801 -0.532424 1.06 4.19 1.76 9.9076 0.49343 2.09189 5.81 -1.13656e-013 -1.38651e-014 79.324 -0.415201 15.4872 -1.07784e-014 -12.08 2.07903e-014 -4.11357 -2.13609 -17.9804 1.42109e-014 -9.82 -2.66454e-015 0.366078 -0.699787 0.00221845 -1.06 4.19 1.76 -10.5192 0.488823 -2.21721 -6.06 -1.04578e-013 1.60753e-014 -82.5606 0.25449 -26.664 9.94289e-014 -11.08 1.12601e-014 2.25508 -2.08853 27.6166 0 -9.82 1.77636e-015 -1.99583 1.32819 0.0229446 3.55271e-015 4.05 1.15463e-014 -0.411479 17.6224 -0.6144 0 5.19 1.77636e-015 1.39319 4.18645 -1.12894 
18.4926 39.3712 -5.34826 -0.814038 -1.05024 0.75262 3.43 -2.68356e-014 9.72408e-015 12.4802 4.99022 7.04455 -1.80605e-014 -18.47 1.42109e-014 -2.14625e-013 8.71454e-013 0.629246 -1.06581e-014 -17.95 -2.22045e-015 -11.6116 -2.26815 -0.230639 -3.43 -2.72192e-013 2.94153e-014 -11.7787 -2.5482 -6.02154 2.4869e-014 -18.47 -8.43769e-015 -6.07981e-005 19.1082 0.658488 1.06581e-014 -17.95 -3.20571e-015 12.2623 -6.9209 0.744335 0 4.57 2.20933e-014 0.920925 -4.8629 -0.585287 3.55271e-014 6.57 7.10543e-015 0.879836 -4.44179 -0.493269 1.06 4.19 1.76 9.94471 0.508198 2.25924 5.81 -1.38627e-013 -1.68231e-014 79.6784 -0.9658 15.5746 -1.56562e-014 -12.08 3.33769e-014 -4.16158 -2.16057 -18.2357 1.42109e-014 -9.82 -2.66454e-015 -0.222397 -0.787357 -0.00148829 -1.06 4.19 1.76 -10.5269 0.468765 -2.01068 -6.06 -1.44221e-013 1.52804e-014 -82.3971 0.396484 -26.8743 1.10238e-013 -11.08 1.24327e-014 2.14403 -2.09827 27.6865 0 -9.82 1.77636e-015 -1.61733 1.56585 0.0221342 3.55271e-015 4.05 1.15463e-014 -0.42697 17.7309 -0.507872 0 5.19 1.77636e-015 0.920807 3.97786 -0.89226 
